<svg width="209" height="71" viewBox="0 0 209 71" fill="none" xmlns="http://www.w3.org/2000/svg">
<path d="M70.8501 0V12.174H39.4802C24.3859 12.174 12.1552 24.4374 12.1552 39.5568V70.9931H0V37.5267C0 16.7986 16.7631 0 37.4475 0H70.8433H70.8501Z" fill="#080A4C"/>
<path d="M69.9848 18.2576L46.7046 41.587L40.6339 47.6706L18.219 70.1398V40.5685C18.219 28.2431 28.1903 18.2576 40.4828 18.2576H69.9848Z" fill="#080A4C"/>
<path d="M70.7677 47.6707C69.7376 60.7255 58.8392 70.9932 45.544 70.9932H19.0774L42.3507 47.6707H70.7608H70.7677Z" fill="#080A4C"/>
<path d="M70.85 19.1177V41.5869H48.4282L70.85 19.1177Z" fill="#080A4C"/>
<path d="M104.816 56.376L104.74 52.474C103.621 55.1372 100.695 57.2637 96.575 57.2637C89.3712 57.2637 85.0242 50.8498 85.0242 43.3968C85.0242 35.9438 89.2956 29.8809 97.2343 29.8809C103.243 29.8809 107.789 33.4319 108.208 38.6483H104.088C103.744 35.5171 100.778 33.3149 97.1931 33.3149C92.3035 33.3149 89.2201 37.4853 89.2201 43.3968C89.2201 48.8816 91.8365 53.7884 97.1931 53.7884C101.774 53.7884 104.397 50.1548 104.397 46.2184H97.8523V42.8944H108.249V56.376H104.823H104.816Z" fill="#080A4C"/>
<path d="M113.901 47.8427C114.053 51.6277 115.982 53.8299 119.024 53.8299C121.222 53.8299 122.911 52.7082 123.413 50.7813H127.416C126.263 54.642 123.529 56.8855 119.018 56.8855C113.125 56.8855 110.042 53.1004 110.042 46.8793C110.042 40.6581 113.318 36.873 118.901 36.873C124.484 36.873 127.684 40.775 127.684 47.8427H113.895H113.901ZM123.722 45.3721C123.646 41.8968 121.607 39.963 118.908 39.963C116.209 39.963 114.169 42.0069 114.018 45.3721H123.722Z" fill="#080A4C"/>
<path d="M141.714 43.1284C141.481 40.8506 140.327 39.8045 137.285 39.8045C134.819 39.8045 133.398 40.4996 133.398 42.1581C133.398 43.3143 134.091 43.9336 135.595 44.4016C137.216 44.904 140.066 45.2893 142.332 46.1014C144.337 46.8378 145.951 47.9526 145.951 50.7742C145.951 54.4835 143.218 56.8784 137.903 56.8784C132.587 56.8784 129.044 54.2908 128.968 50.2718H132.938C133.013 52.708 134.902 53.9398 137.868 53.9398C140.835 53.9398 142.222 52.6667 142.222 51.194C142.222 50.1479 141.529 49.5699 140.643 49.1501C138.912 48.3036 136.564 48.0696 134.517 47.4915C130.513 46.3354 129.662 44.3603 129.662 42.3921C129.662 39.1094 132.01 36.866 137.443 36.866C142.875 36.866 145.223 39.2196 145.415 43.1216H141.721L141.714 43.1284Z" fill="#080A4C"/>
<path d="M147.606 65.3777V37.3754H151.342V40.8163C152.571 37.8021 155.002 36.873 157.351 36.873C162.048 36.873 165.516 40.5824 165.516 47.0306C165.516 53.0591 162.474 56.8786 157.701 56.8786C155.085 56.8786 152.736 55.7224 151.424 52.8596V65.3777H147.613H147.606ZM161.588 47.0306C161.588 42.5506 159.473 40.0387 156.424 40.0387C153.375 40.0387 151.26 42.3579 151.26 46.838C151.26 50.6987 152.956 53.5959 156.499 53.5959C159.775 53.5959 161.581 51.1598 161.581 47.0306H161.588Z" fill="#080A4C"/>
<path d="M167.521 56.376V30.4177H171.374V56.376H167.521Z" fill="#080A4C"/>
<path d="M186.235 56.3762C186.118 56.0321 186.043 54.2497 186.001 53.7886C184.999 55.4884 182.884 56.8786 179.416 56.8786C175.178 56.8786 173.214 54.8278 173.214 51.318C173.214 46.3356 177.142 45.7162 181.689 45.0969C184.422 44.7115 185.733 44.5188 185.885 43.1286C185.885 41.0847 184.539 39.8873 181.764 39.8873C178.797 39.8873 177.603 41.3187 177.41 43.5553H173.826C173.901 39.612 175.982 36.873 181.915 36.873C187.849 36.873 189.813 39.5776 189.813 44.3674V56.3831H186.228L186.235 56.3762ZM185.967 46.5627C185.39 47.2165 183.769 47.3747 181.73 47.6844C178.688 48.1868 177.067 48.8406 177.067 51.2011C177.067 53.0936 178.145 54.0983 180.343 54.0983C183.536 54.0983 185.809 52.0131 185.926 49.3085L185.967 46.5627Z" fill="#080A4C"/>
<path d="M205.147 56.376V44.67C205.147 41.2291 203.836 40.1486 201.26 40.1486C197.408 40.1486 196.096 42.5848 196.096 46.5212V56.3691H192.244V37.3683H195.938V41.1534C197.058 38.2148 199.482 36.866 202.565 36.866C206.301 36.866 209 38.8755 209 43.4312V56.3691H205.147V56.376Z" fill="#080A4C"/>
</svg>
