<?xml version="1.0" encoding="utf-8"?>
<!-- Generator: Adobe Illustrator 29.6.1, SVG Export Plug-In . SVG Version: 9.03 Build 0)  -->
<svg version="1.0" id="Capa_1" xmlns="http://www.w3.org/2000/svg" xmlns:xlink="http://www.w3.org/1999/xlink" x="0px" y="0px"
	 viewBox="0 0 2173.3 754.7" style="enable-background:new 0 0 2173.3 754.7;" xml:space="preserve">
<style type="text/css">
	.st0{fill:#FFFFFF;}
</style>
<g>
	<g transform="translate(57.93005, 888.749903)">
		<g>
			<path d="M265.4-394.5c-21.6,0-41.9-4.1-61-12.3c-19-8.2-35.6-19.4-49.9-33.7c-14.3-14.3-25.4-30.9-33.6-49.9
				s-12.3-39.3-12.3-60.9s4.1-41.9,12.3-60.9c8.2-19.1,19.4-35.7,33.7-49.9c14.2-14.3,30.9-25.5,49.9-33.7s39.3-12.3,61-12.3
				c21.3,0,41.2,3.9,59.7,11.8c18.5,7.9,34.9,18.7,49.1,32.4c14.2,13.8,25.5,29.7,33.7,47.7h-84.5c-7.5-6.9-16.3-12.4-26.3-16.5
				s-20.6-6.1-31.7-6.1c-16.1,0-30.6,3.9-43.8,11.8c-13.1,7.9-23.6,18.4-31.5,31.7c-7.9,13.3-11.8,27.9-11.8,44
				c0,15.7,3.9,30.2,11.8,43.5c7.9,13.3,18.4,23.8,31.5,31.7s27.7,11.8,43.8,11.8c13.1,0,25.3-2.7,36.6-8.1s21.1-12.7,29.2-21.9
				h80.1c-7.5,19.3-18.6,36.5-33.2,51.6s-31.5,26.9-50.6,35.4C308.4-398.8,287.7-394.5,265.4-394.5z"/>
		</g>
	</g>
</g>
<g>
	<g transform="translate(298.631917, 888.749903)">
		<g>
			<path d="M501-551.3v174l-77.2-38.8c-24.2,14.4-50.8,21.6-79.6,21.6c-21.6,0-41.9-4.1-61-12.3c-19-8.2-35.6-19.4-49.9-33.7
				c-14.3-14.3-25.4-30.9-33.6-49.9s-12.3-39.3-12.3-61s4.1-41.9,12.3-60.9s19.4-35.6,33.7-49.9c14.2-14.2,30.8-25.4,49.8-33.6
				s39.3-12.3,61-12.3s41.9,4.1,60.9,12.3c19,8.2,35.6,19.4,49.9,33.7c14.2,14.2,25.5,30.9,33.7,49.9C496.9-593.3,501-573,501-551.3
				z M344.2-638.3c-16.1,0-30.6,3.9-43.8,11.8c-13.1,7.9-23.6,18.3-31.5,31.5c-7.9,13.1-11.8,27.7-11.8,43.7
				c0,16.1,3.9,30.6,11.8,43.8c7.9,13.1,18.4,23.6,31.5,31.5c13.1,7.9,27.7,11.8,43.8,11.8s30.6-3.9,43.7-11.8s23.6-18.3,31.5-31.5
				c7.9-13.1,11.8-27.7,11.8-43.8c0-16-3.9-30.6-11.8-43.7s-18.3-23.6-31.5-31.5C374.8-634.4,360.2-638.3,344.2-638.3z"/>
		</g>
	</g>
</g>
<g>
	<g transform="translate(561.081772, 888.749903)">
		<g>
			<path d="M555-568.5v174h-69.3v-174c0-13.1-3.2-24.9-9.6-35.4s-14.8-18.8-25.3-25.1c-10.5-6.2-22.1-9.3-34.9-9.3
				s-24.4,3.1-34.9,9.3c-10.4,6.2-18.9,14.6-25.3,25.1s-9.6,22.3-9.6,35.4v174l-69.8-0.1v-173.9c0-19.3,3.6-37.4,10.8-54.3
				c7.2-16.9,17.2-31.7,30-44.5s27.6-22.8,44.5-30s35-10.8,54.3-10.8s37.4,3.6,54.1,10.8c16.7,7.2,31.4,17.2,44.2,30
				c12.8,12.8,22.8,27.6,30,44.5C551.4-605.9,555-587.9,555-568.5z"/>
		</g>
	</g>
</g>
<g>
	<g transform="translate(790.725399, 888.749903)">
		<g>
			<path d="M665-551.3v174l-77.2-38.8c-24.2,14.4-50.8,21.6-79.6,21.6c-21.6,0-41.9-4.1-61-12.3c-19-8.2-35.6-19.4-49.9-33.7
				c-14.3-14.3-25.4-30.9-33.6-49.9s-12.3-39.3-12.3-61s4.1-41.9,12.3-60.9c8.2-19,19.4-35.6,33.7-49.9
				c14.2-14.2,30.9-25.4,49.9-33.6s39.3-12.3,61-12.3s41.9,4.1,60.9,12.3c19,8.2,35.6,19.4,49.9,33.7c14.2,14.2,25.5,30.9,33.7,49.9
				C660.9-593.3,665-573,665-551.3z M508.2-638.3c-16.1,0-30.6,3.9-43.8,11.8c-13.1,7.9-23.6,18.3-31.5,31.5
				c-7.9,13.1-11.8,27.7-11.8,43.7c0,16.1,3.9,30.6,11.8,43.8c7.9,13.1,18.4,23.6,31.5,31.5s27.7,11.8,43.8,11.8
				c16.1,0,30.6-3.9,43.7-11.8c13.1-7.9,23.6-18.3,31.5-31.5c7.9-13.1,11.8-27.7,11.8-43.8c0-16-3.9-30.6-11.8-43.7
				c-7.9-13.1-18.3-23.6-31.5-31.5C538.8-634.4,524.3-638.3,508.2-638.3z"/>
		</g>
	</g>
</g>
<g>
	<g transform="translate(1057.229986, 888.749903)">
		<g>
			<path d="M441.7-551.3c0-21.6,4.1-41.9,12.3-60.9c8.2-19,19.4-35.6,33.7-49.9c14.2-14.3,30.9-25.5,49.9-33.7s39.3-12.3,61-12.3
				v69.8c-16.1,0-30.6,3.9-43.8,11.8c-13.1,7.9-23.6,18.3-31.5,31.5c-7.9,13.1-11.8,27.7-11.8,43.7v156.8l-69.8-0.1L441.7-551.3
				L441.7-551.3z"/>
		</g>
	</g>
</g>
<g>
	<g>
		<g transform="translate(1194.72122, 888.749903)">
			<g>
				<path d="M636.5-373.9c-7.2,20-17.7,37.4-31.5,52.3s-29.7,26.7-47.7,35.4c-18,8.7-37,13.8-57,15.5h-1V-341
					c16.1-2,30.6-7.9,43.5-17.7c12.9-9.8,22.4-22.8,28.2-38.8l9.8-27.5l-101-184.2l80,1l55.5,88.8l68.8-188.7h74.2L636.5-373.9z"/>
			</g>
		</g>
	</g>
	<g>
		<g transform="translate(790.725399, 888.749903)">
			<g>
				<path d="M1246.9-708l-124.1,105.9l39.6-106"/>
			</g>
		</g>
	</g>
</g>
<g>
	<g transform="translate(57.93005, 888.749903)">
		<g>
			<path d="M262.7,534.9c-21.6,0-41.9-4.1-61-12.3c-19-8.2-35.6-19.4-49.9-33.7c-14.3-14.3-25.4-30.9-33.6-49.9
				s-12.3-39.3-12.3-60.9s4.1-41.9,12.3-60.9c8.2-19.1,19.4-35.7,33.7-49.9c14.2-14.3,30.9-25.5,49.9-33.7s39.3-12.3,61-12.3
				c21.3,0,41.2,3.9,59.7,11.8c18.5,7.9,34.9,18.7,49.1,32.4c14.2,13.8,25.5,29.7,33.7,47.7h-84.5c-7.5-6.9-16.3-12.4-26.3-16.5
				s-20.6-6.1-31.7-6.1c-16.1,0-30.6,3.9-43.8,11.8c-13.1,7.9-23.6,18.4-31.5,31.7s-11.8,27.9-11.8,44c0,15.7,3.9,30.2,11.8,43.5
				s18.4,23.8,31.5,31.7s27.7,11.8,43.8,11.8c13.1,0,25.3-2.7,36.6-8.1c11.3-5.4,21.1-12.7,29.2-21.9h80.1
				c-7.5,19.3-18.6,36.5-33.2,51.6s-31.5,26.9-50.6,35.4C305.7,530.6,285,534.9,262.7,534.9z"/>
		</g>
	</g>
</g>
<g>
	<g transform="translate(298.631917, 888.749903)">
		<g>
			<path d="M498.3,378.1v174l-77.2-38.8c-24.2,14.4-50.8,21.6-79.6,21.6c-21.6,0-41.9-4.1-61-12.3c-19-8.2-35.6-19.4-49.9-33.7
				S205.2,458,197,439s-12.3-39.3-12.3-61s4.1-41.9,12.3-60.9s19.4-35.6,33.7-49.9c14.2-14.2,30.8-25.4,49.8-33.6s39.3-12.3,61-12.3
				s41.9,4.1,60.9,12.3s35.6,19.4,49.9,33.7c14.2,14.2,25.5,30.9,33.7,49.9C494.2,336.1,498.3,356.4,498.3,378.1z M341.5,291.1
				c-16.1,0-30.6,3.9-43.8,11.8c-13.1,7.9-23.6,18.3-31.5,31.5c-7.9,13.1-11.8,27.7-11.8,43.7c0,16.1,3.9,30.6,11.8,43.8
				c7.9,13.1,18.4,23.6,31.5,31.5s27.7,11.8,43.8,11.8s30.6-3.9,43.7-11.8s23.6-18.3,31.5-31.5c7.9-13.1,11.8-27.7,11.8-43.8
				c0-16-3.9-30.6-11.8-43.7s-18.3-23.6-31.5-31.5C372.1,295,357.5,291.1,341.5,291.1z"/>
		</g>
	</g>
</g>
<g>
	<g transform="translate(561.081772, 888.749903)">
		<g>
			<path d="M552.3,360.9v174H483v-174c0-13.1-3.2-24.9-9.6-35.4s-14.8-18.8-25.3-25.1c-10.5-6.2-22.1-9.3-34.9-9.3
				s-24.4,3.1-34.9,9.3c-10.4,6.2-18.9,14.6-25.3,25.1s-9.6,22.3-9.6,35.4v174l-69.8-0.1V360.9c0-19.3,3.6-37.4,10.8-54.3
				c7.2-16.9,17.2-31.7,30-44.5c12.8-12.8,27.6-22.8,44.5-30s35-10.8,54.3-10.8s37.4,3.6,54.1,10.8s31.4,17.2,44.2,30
				c12.8,12.8,22.8,27.6,30,44.5S552.3,341.5,552.3,360.9z"/>
		</g>
	</g>
</g>
<g>
	<g transform="translate(790.725399, 888.749903)">
		<g>
			<path d="M662.3,378.1v174l-77.2-38.8c-24.2,14.4-50.8,21.6-79.6,21.6c-21.6,0-41.9-4.1-61-12.3c-19-8.2-35.6-19.4-49.9-33.7
				S369.2,458,361,439s-12.3-39.3-12.3-61s4.1-41.9,12.3-60.9c8.2-19,19.4-35.6,33.7-49.9c14.2-14.2,30.9-25.4,49.9-33.6
				s39.3-12.3,61-12.3s41.9,4.1,60.9,12.3s35.6,19.4,49.9,33.7c14.2,14.2,25.5,30.9,33.7,49.9C658.2,336.1,662.3,356.4,662.3,378.1z
				 M505.5,291.1c-16.1,0-30.6,3.9-43.8,11.8c-13.1,7.9-23.6,18.3-31.5,31.5c-7.9,13.1-11.8,27.7-11.8,43.7
				c0,16.1,3.9,30.6,11.8,43.8c7.9,13.1,18.4,23.6,31.5,31.5s27.7,11.8,43.8,11.8s30.6-3.9,43.7-11.8c13.1-7.9,23.6-18.3,31.5-31.5
				c7.9-13.1,11.8-27.7,11.8-43.8c0-16-3.9-30.6-11.8-43.7s-18.3-23.6-31.5-31.5C536.1,295,521.6,291.1,505.5,291.1z"/>
		</g>
	</g>
</g>
<g>
	<g transform="translate(1057.229986, 888.749903)">
		<g>
			<path d="M439,378.1c0-21.6,4.1-41.9,12.3-60.9c8.2-19,19.4-35.6,33.7-49.9c14.2-14.3,30.9-25.5,49.9-33.7s39.3-12.3,61-12.3v69.8
				c-16.1,0-30.6,3.9-43.8,11.8c-13.1,7.9-23.6,18.3-31.5,31.5c-7.9,13.1-11.8,27.7-11.8,43.7v156.8l-69.8-0.1V378.1L439,378.1z"/>
		</g>
	</g>
</g>
<g>
	<g>
		<g transform="translate(1194.72122, 888.749903)">
			<g>
				<path d="M661.8,555.5c-7.2,20-17.7,37.4-31.5,52.3c-13.8,14.9-29.7,26.7-47.7,35.4s-37,13.8-57,15.5h-1v-70.3
					c16.1-2,30.6-7.9,43.5-17.7c12.9-9.8,22.4-22.8,28.2-38.8l9.8-27.5L490.5,291.3h76.2l74,118.7l68.8-188.7h74.2L661.8,555.5z"/>
			</g>
		</g>
	</g>
	<g>
		<g transform="translate(790.725399, 888.749903)">
			<g>
				<path d="M1272.2,221.4l-124.1,105.9l39.6-106"/>
			</g>
		</g>
	</g>
</g>
<g>
	<g transform="translate(57.93005, 888.749903)">
		<g>
			<path class="st0" d="M-2037.6-377.8c-21.6,0-41.9-4.1-61-12.3c-19-8.2-35.6-19.4-49.9-33.7c-14.3-14.3-25.4-30.9-33.6-49.9
				s-12.3-39.3-12.3-60.9s4.1-41.9,12.3-60.9c8.2-19.1,19.4-35.7,33.7-49.9c14.2-14.3,30.9-25.5,49.9-33.7s39.3-12.3,61-12.3
				c21.3,0,41.2,3.9,59.7,11.8s34.9,18.7,49.1,32.4c14.2,13.8,25.5,29.7,33.7,47.7h-84.5c-7.5-6.9-16.3-12.4-26.3-16.5
				s-20.6-6.1-31.7-6.1c-16.1,0-30.6,3.9-43.8,11.8c-13.1,7.9-23.6,18.4-31.5,31.7c-7.9,13.3-11.8,27.9-11.8,44
				c0,15.7,3.9,30.2,11.8,43.5s18.4,23.8,31.5,31.7s27.7,11.8,43.8,11.8c13.1,0,25.3-2.7,36.6-8.1c11.3-5.4,21.1-12.7,29.2-21.9
				h80.1c-7.5,19.3-18.6,36.5-33.2,51.6s-31.5,26.9-50.6,35.4C-1994.6-382.1-2015.3-377.8-2037.6-377.8z"/>
		</g>
	</g>
</g>
<g>
	<g transform="translate(298.631917, 888.749903)">
		<g>
			<path class="st0" d="M-1802-534.6v174l-77.2-38.8c-24.2,14.4-50.8,21.6-79.6,21.6c-21.6,0-41.9-4.1-61-12.3
				c-19-8.2-35.6-19.4-49.9-33.7c-14.3-14.3-25.4-30.9-33.6-49.9s-12.3-39.3-12.3-61s4.1-41.9,12.3-60.9s19.4-35.6,33.7-49.9
				c14.2-14.2,30.8-25.4,49.8-33.6s39.3-12.3,61-12.3c21.7,0,41.9,4.1,60.9,12.3c19,8.2,35.6,19.4,49.9,33.7
				c14.2,14.2,25.5,30.9,33.7,49.9C-1806.1-576.6-1802-556.3-1802-534.6z M-1958.8-621.6c-16.1,0-30.6,3.9-43.8,11.8
				c-13.1,7.9-23.6,18.3-31.5,31.5c-7.9,13.1-11.8,27.7-11.8,43.7c0,16.1,3.9,30.6,11.8,43.8c7.9,13.1,18.4,23.6,31.5,31.5
				s27.7,11.8,43.8,11.8c16.1,0,30.6-3.9,43.7-11.8s23.6-18.3,31.5-31.5c7.9-13.1,11.8-27.7,11.8-43.8c0-16-3.9-30.6-11.8-43.7
				s-18.3-23.6-31.5-31.5C-1928.2-617.7-1942.8-621.6-1958.8-621.6z"/>
		</g>
	</g>
</g>
<g>
	<g transform="translate(561.081772, 888.749903)">
		<g>
			<path class="st0" d="M-1748-551.8v174h-69.3v-174c0-13.1-3.2-24.9-9.6-35.4s-14.8-18.8-25.3-25.1c-10.5-6.2-22.1-9.3-34.9-9.3
				c-12.8,0-24.4,3.1-34.9,9.3c-10.4,6.2-18.9,14.6-25.3,25.1c-6.4,10.5-9.6,22.3-9.6,35.4v174l-69.8-0.1v-173.9
				c0-19.3,3.6-37.4,10.8-54.3c7.2-16.9,17.2-31.7,30-44.5c12.8-12.8,27.6-22.8,44.5-30c16.9-7.2,35-10.8,54.3-10.8
				c19.3,0,37.4,3.6,54.1,10.8c16.7,7.2,31.4,17.2,44.2,30c12.8,12.8,22.8,27.6,30,44.5C-1751.6-589.2-1748-571.2-1748-551.8z"/>
		</g>
	</g>
</g>
<g>
	<g transform="translate(790.725399, 888.749903)">
		<g>
			<path class="st0" d="M-1638-534.6v174l-77.2-38.8c-24.2,14.4-50.8,21.6-79.6,21.6c-21.6,0-41.9-4.1-61-12.3
				c-19-8.2-35.6-19.4-49.9-33.7c-14.3-14.3-25.4-30.9-33.6-49.9c-8.2-19-12.3-39.3-12.3-61s4.1-41.9,12.3-60.9
				c8.2-19,19.4-35.6,33.7-49.9c14.2-14.2,30.9-25.4,49.9-33.6s39.3-12.3,61-12.3c21.7,0,41.9,4.1,60.9,12.3
				c19,8.2,35.6,19.4,49.9,33.7c14.2,14.2,25.5,30.9,33.7,49.9C-1642.1-576.6-1638-556.3-1638-534.6z M-1794.8-621.6
				c-16.1,0-30.6,3.9-43.8,11.8c-13.1,7.9-23.6,18.3-31.5,31.5c-7.9,13.1-11.8,27.7-11.8,43.7c0,16.1,3.9,30.6,11.8,43.8
				c7.9,13.1,18.4,23.6,31.5,31.5s27.7,11.8,43.8,11.8s30.6-3.9,43.7-11.8s23.6-18.3,31.5-31.5c7.9-13.1,11.8-27.7,11.8-43.8
				c0-16-3.9-30.6-11.8-43.7s-18.3-23.6-31.5-31.5C-1764.2-617.7-1778.7-621.6-1794.8-621.6z"/>
		</g>
	</g>
</g>
<g>
	<g transform="translate(1057.229986, 888.749903)">
		<g>
			<path class="st0" d="M-1861.3-534.6c0-21.6,4.1-41.9,12.3-60.9c8.2-19,19.4-35.6,33.7-49.9c14.2-14.3,30.9-25.5,49.9-33.7
				s39.3-12.3,61-12.3v69.8c-16.1,0-30.6,3.9-43.8,11.8c-13.1,7.9-23.6,18.3-31.5,31.5c-7.9,13.1-11.8,27.7-11.8,43.7v156.8
				l-69.8-0.1V-534.6L-1861.3-534.6z"/>
		</g>
	</g>
</g>
<g>
	<g>
		<g transform="translate(1194.72122, 888.749903)">
			<g>
				<path class="st0" d="M-1666.5-357.2c-7.2,20-17.7,37.4-31.5,52.3c-13.8,14.9-29.7,26.7-47.7,35.4c-18,8.7-37,13.8-57,15.5h-1
					v-70.3c16.1-2,30.6-7.9,43.5-17.7c12.9-9.8,22.4-22.8,28.2-38.8l9.8-27.5l-101-184.2l80,1l55.5,88.8l68.8-188.7h74.2
					L-1666.5-357.2z"/>
			</g>
		</g>
	</g>
	<g>
		<g transform="translate(790.725399, 888.749903)">
			<g>
				<path class="st0" d="M-1056.1-691.3l-124.1,105.9l39.6-106"/>
			</g>
		</g>
	</g>
</g>
</svg>
