<svg xmlns="http://www.w3.org/2000/svg" width="3612" height="1071" viewBox="0 0 3612 1071" fill="none"><g clip-path="url(#clip0_3301_27)"><path d="M3611.62 245.27V666.05H3518.63L3331.19 289.71H3316.51V666.05H3267.71V245.27H3358.85L3548.71 621.69H3563.47V245.27H3611.62Z" fill="#080A4C"></path><path d="M2982.27 245.27C3104.86 245.27 3196.81 337.38 3196.81 455.62C3196.81 573.86 3104.14 666.05 2981.62 666.05C2859.1 666.05 2767.64 576.2 2767.64 455.62C2767.64 335.04 2860.15 245.27 2982.26 245.27H2982.27ZM3146.32 455.62C3146.32 360.61 3075.42 289.31 2982.27 289.31C2889.12 289.31 2818.06 360.61 2818.06 455.62C2818.06 550.63 2889.12 622.01 2982.27 622.01C3075.42 622.01 3146.32 551.84 3146.32 455.62Z" fill="#080A4C"></path><path d="M2697.56 245.27H2648.93V666.04H2697.56V245.27Z" fill="#080A4C"></path><path d="M2579.16 245.27V289.71H2456.65V666.05H2407.93V289.71H2285.26V245.27H2579.16Z" fill="#080A4C"></path><path d="M2215.25 245.27H2166.53V666.04H2215.25V245.27Z" fill="#080A4C"></path><path d="M2087.49 362.87H2037.48C2037.48 316.57 2005.62 288.1 1948.52 288.1C1891.42 288.1 1863.11 320.04 1863.11 353.59C1863.11 464.33 2096.36 387.14 2096.36 551.19C2096.36 614.99 2042.24 666.04 1950.38 666.04C1866.82 666.04 1800.04 613.29 1800.04 538.04H1848.67C1848.67 584.82 1888.35 622.65 1952.15 622.65C2007.4 622.65 2047.16 596.52 2047.16 554.09C2047.16 427.3 1814.55 515.86 1814.55 353.58C1814.55 295.67 1864.39 245.26 1949.08 245.26C2012.88 245.26 2087.48 278.89 2087.48 362.85L2087.49 362.87Z" fill="#080A4C"></path><path d="M1729.55 245.27V666.05H1636.88L1449.19 289.71H1434.43V666.05H1385.8V245.27H1476.86L1666.8 621.69H1681.48V245.27H1729.55Z" fill="#080A4C"></path><path d="M1716.48 860.59V876.39H1633.09V718.55H1650.75V860.59H1716.48Z" fill="#080A4C"></path><path d="M1451.05 718.55L1507.19 876.39H1488.56L1475.41 839.05H1401.05L1387.66 876.39H1369.35L1426.05 718.55H1451.05ZM1469.52 822.35L1438.87 735.32H1437.58L1406.93 822.35H1469.52Z" fill="#080A4C"></path><path d="M1177.95 245.27L1350.79 666.05H1297.32L1150.29 289.71H1135.61L991.64 666.05H938.17L1106.9 245.27H1177.95Z" fill="#080A4C"></path><path d="M1269.25 718.55V734.76H1224.89V876.39H1207.39V734.76H1163.03V718.55H1269.25Z" fill="#080A4C"></path><path d="M1036.97 733.8V876.39H1019.3V733.8V718.55H1036.97V733.8Z" fill="#080A4C"></path><path d="M831.701 487.56L897.761 666.05H844.451L781.461 495.87H682.011V666.05H633.211V245.28H777.821C863.801 245.28 914.931 294.56 914.931 367.87C914.931 424.89 886.381 470.79 831.691 487.56H831.701ZM864.371 368.43C864.371 323.99 834.371 288.5 774.921 288.5H682.011V452.63H777.831C827.111 452.63 864.371 423.76 864.371 368.43Z" fill="#080A4C"></path><path d="M854.449 718.55C882.029 718.55 900.989 736.7 900.989 764.36C900.989 792.02 881.229 810.49 854.449 810.49H821.779V876.38H804.279V718.54H854.449V718.55ZM882.839 764.36C882.839 746.94 871.229 734.28 852.999 734.28H821.789V794.85H852.999C871.229 794.85 882.839 781.95 882.839 764.36Z" fill="#080A4C"></path><path d="M622.079 718.55L678.049 876.39H659.659L646.349 839.05H572.069L558.839 876.39H540.289L596.989 718.55H622.069H622.079ZM640.549 822.35L609.819 735.32H608.609L577.879 822.35H640.549Z" fill="#080A4C"></path><path d="M563.201 245.27V289.71H440.691V666.05H391.971V289.71H269.301V245.27H563.201Z" fill="#080A4C"></path><path d="M416.981 767.99H397.301C389.231 748.15 370.041 735.16 346.491 735.16C312.861 735.16 287.611 761.94 287.611 797.59C287.611 833.24 312.851 859.94 346.491 859.94C370.041 859.94 389.801 847.04 397.301 827.03H416.981C407.301 856.47 380.201 876.39 346.331 876.39C302.211 876.39 269.301 842.76 269.301 797.59C269.301 752.42 302.451 718.55 346.491 718.55C380.451 718.55 406.901 739.28 416.981 767.99Z" fill="#080A4C"></path><path d="M227.92 1.28996C228.08 2.09996 227.76 2.81996 227.03 3.05996C220.74 6.11996 214.45 9.66998 209.37 14.51C207.27 16.53 205.34 18.87 205.18 21.53C205.34 28.39 211.31 33.79 216.79 37.18C218.65 38.07 219.45 39.92 219.37 41.86L219.69 48.07C219.93 51.46 217.11 54.04 213.88 53.96C204.93 54.44 189.2 55.33 177.18 55.9C178.15 64.69 179.36 75.66 180.24 84.61C190.32 84.29 206.94 83.8 206.94 83.8C214.52 83.4 220.25 91.46 217.43 98.56L217.19 99.21L207.51 124.54C207.51 124.54 202.27 137.77 199.69 144.46C202.11 149.46 205.74 156.96 205.74 156.96C208.8 163.25 206.14 170.83 199.77 173.9C198 174.79 196.06 175.19 194.12 175.19C194.12 175.19 189.93 175.19 185.81 175.27C180.16 181.64 171.37 184.38 162.5 183.98C143.79 184.14 124.19 184.22 105.56 184.06C103.14 184.38 102.09 186.88 103.3 188.98L109.59 203.26C117.57 221.65 126.2 242.14 133.95 260.77L157.82 318.44C159.84 322.07 158.71 326.59 154.76 328.2C147.66 329.97 139.03 334.73 137.9 342.48C137.34 345.71 137.9 349.34 140 352C142.26 354.9 146.21 356.76 149.84 357.48C152.26 358.04 153.87 360.22 153.79 362.64L153.39 383.61C153.39 386.27 151.21 388.45 148.47 388.45C144.52 388.53 132.98 387.89 129.44 388.53C121.78 389.9 116.29 397.24 116.29 404.82H107.42V404.42C107.26 389.66 120.65 377.8 135.17 378.85C135.17 378.85 139.69 378.77 143.48 378.77C143.4 374.58 143.32 370.7 143.24 366.83C138.72 365.46 134.61 363.12 131.3 359.49C124.61 351.99 123.64 340.46 128.07 331.66C130.97 325.85 135.73 321.5 141.14 318.27C121.94 281.49 97.8299 235.6 80.1699 199.79C70.1699 180.84 84.4399 157.29 105.98 157.53C125.34 157.29 144.94 157.45 164.29 157.53H165.42C165.74 157.53 165.98 157.45 166.23 157.45C167.68 153.74 170.83 150.92 174.46 149.79C173.09 146.64 173.17 143.1 174.46 140.19L185.51 115.35C185.51 115.35 187.77 110.27 189.95 105.51L171.24 104.95C165.92 105.19 161.4 100.92 161.24 95.59L160.51 72.12L159.95 48.65C159.55 44.13 162.93 39.94 167.61 39.86C167.77 39.86 167.93 39.86 168.17 39.94L191 40.99C191 40.99 198.9 41.39 205.6 41.8C198.91 34.7 194.07 24.62 199.31 15.67C205.68 6.79998 216.25 3.40997 226.09 0.349973C226.9 0.109973 227.7 0.589974 227.95 1.31997L227.92 1.28996Z" fill="#080A4C"></path><path d="M220.499 1060.69C221.309 1060.77 221.949 1061.5 221.869 1062.3C221.789 1063.03 221.139 1063.59 220.419 1063.67C151.859 1067.38 83.1491 1069.07 14.5091 1070.2C8.05916 1070.28 2.97916 1064.96 3.13916 1058.67L2.48916 1038.02C2.40916 1034.23 2.00916 1027.45 2.16916 1024.15C2.48916 1015.36 9.90916 1007.86 14.0291 1002.13C17.7391 997.05 18.9491 993.5 15.7991 987.93C9.58916 977.36 -3.07084 967.77 1.03916 953.49C2.64916 947.44 5.87916 942.36 9.10916 937.52C15.9691 926.95 28.1391 914.05 36.4491 904.37C53.7091 884.13 71.8591 864.2 87.5791 842.83C87.4991 842.59 87.4191 842.27 87.2591 841.86L85.7291 837.34C79.0391 819.6 78.2291 798.14 93.3091 782.66C102.179 773.47 110.489 770.88 118.639 766.13C119.289 764.92 119.929 763.55 120.499 762.58C129.859 744.84 134.779 725.32 139.289 705.4C150.579 652.65 154.779 598.13 157.919 544.01C159.369 518.93 160.259 493.6 160.499 468.52C133.799 465.46 89.5191 459.57 72.9891 444.16C67.9891 439.72 66.0491 431.01 70.0091 425.29C77.2691 414.24 94.4491 409.24 107.429 405.93V404.8H116.299C116.299 405.28 116.379 405.69 116.379 406.09V409.4C116.379 411.58 114.849 413.43 112.829 413.84C103.879 415.86 79.2791 422.47 77.4991 432.39C78.1491 439 89.1891 442.55 94.8391 444.57C118.469 451.67 143.959 453.36 168.479 454.17C172.509 454.25 175.659 457.56 175.739 461.43C178.479 502.89 180.009 544.5 179.209 586.04C178.399 627.98 174.939 669.76 167.429 711.14C163.319 732.67 158.399 753.97 148.879 773.97C148.479 774.86 147.989 775.74 147.589 776.55L146.379 778.97L145.819 780.02C144.769 782.28 143.559 784.46 141.949 786.31C135.419 793.81 127.999 795.42 121.059 800.18C108.069 807.84 113.319 819.46 117.749 832.2C119.689 837.68 121.139 845.99 118.799 852.2L118.399 853.17C118.079 853.9 117.919 854.3 117.669 854.7L117.349 855.35C108.799 869.63 97.5891 881.4 87.0191 893.9C71.7791 911.81 54.4391 929.47 38.9491 947.13C35.7991 951 32.4991 954.87 29.9991 958.99C30.3191 959.47 30.5591 959.88 30.8891 960.28L33.9491 964.47C42.8991 975.92 48.7891 991.49 42.2591 1006.33C38.8691 1015.12 32.0991 1021.25 27.1791 1027.14C26.9391 1033.35 26.7791 1040.61 26.5291 1047.71C91.2991 1051.02 155.979 1054.89 220.499 1060.7V1060.69Z" fill="#080A4C"></path></g><defs><clipPath id="clip0_3301_27"><rect width="3612" height="1071" fill="#080A4C"></rect></clipPath></defs></svg>